ISO-10303-21;
HEADER;
FILE_DESCRIPTION(('Shape Data from Truck'), '2;1');
FILE_NAME('outer-box-mm.step', '2000-01-01T00:00:00Z', (('')), (('')), 'truck', 'eqiora-truck-fixture', '');
FILE_SCHEMA(('ISO-10303-042'));
ENDSEC;
DATA;
#1 = APPLICATION_PROTOCOL_DEFINITION('international standard', 'automotive_design', 2000, #2);
#2 = APPLICATION_CONTEXT('core data for automotive mechanical design processes');
#3 = SHAPE_DEFINITION_REPRESENTATION(#4, #10);
#4 = PRODUCT_DEFINITION_SHAPE('','', #5);
#5 = PRODUCT_DEFINITION('design','', #6, #9);
#6 = PRODUCT_DEFINITION_FORMATION('','', #7);
#7 = PRODUCT('','','', (#8));
#8 = PRODUCT_CONTEXT('', #2, 'mechanical');
#9 = PRODUCT_DEFINITION_CONTEXT('part definition', #2, 'design');
#10 = ADVANCED_BREP_SHAPE_REPRESENTATION('', (#16), #11);
#11 = (
    GEOMETRIC_REPRESENTATION_CONTEXT(3) 
    GLOBAL_UNCERTAINTY_ASSIGNED_CONTEXT((#15))
    GLOBAL_UNIT_ASSIGNED_CONTEXT((#12, #13, #14))
    REPRESENTATION_CONTEXT('Context #1', '3D Context with UNIT and UNCERTAINTY')
);
#12 = ( LENGTH_UNIT() NAMED_UNIT(*) SI_UNIT(.MILLI.,.METRE.) );
#13 = ( NAMED_UNIT(*) PLANE_ANGLE_UNIT() SI_UNIT($,.RADIAN.) );
#14 = ( NAMED_UNIT(*) SI_UNIT($,.STERADIAN.) SOLID_ANGLE_UNIT() );
#15 = UNCERTAINTY_MEASURE_WITH_UNIT(1.0E-6, #12, 'distance_accuracy_value','confusion accuracy');
#16 = MANIFOLD_SOLID_BREP('', #17);
#17 = CLOSED_SHELL('', (#18, #25, #32, #39, #46, #53));
#18 = FACE_SURFACE('', (#19), #80, .F.);
#19 = FACE_BOUND('', #20, .F.);
#20 = EDGE_LOOP('', (#21, #22, #23, #24));
#21 = ORIENTED_EDGE('', *, *, #60, .T.);
#22 = ORIENTED_EDGE('', *, *, #61, .T.);
#23 = ORIENTED_EDGE('', *, *, #62, .F.);
#24 = ORIENTED_EDGE('', *, *, #63, .F.);
#25 = FACE_SURFACE('', (#26), #85, .T.);
#26 = FACE_BOUND('', #27, .T.);
#27 = EDGE_LOOP('', (#28, #29, #30, #31));
#28 = ORIENTED_EDGE('', *, *, #60, .T.);
#29 = ORIENTED_EDGE('', *, *, #64, .T.);
#30 = ORIENTED_EDGE('', *, *, #65, .F.);
#31 = ORIENTED_EDGE('', *, *, #66, .F.);
#32 = FACE_SURFACE('', (#33), #90, .T.);
#33 = FACE_BOUND('', #34, .T.);
#34 = EDGE_LOOP('', (#35, #36, #37, #38));
#35 = ORIENTED_EDGE('', *, *, #61, .T.);
#36 = ORIENTED_EDGE('', *, *, #67, .T.);
#37 = ORIENTED_EDGE('', *, *, #68, .F.);
#38 = ORIENTED_EDGE('', *, *, #64, .F.);
#39 = FACE_SURFACE('', (#40), #95, .F.);
#40 = FACE_BOUND('', #41, .F.);
#41 = EDGE_LOOP('', (#42, #43, #44, #45));
#42 = ORIENTED_EDGE('', *, *, #67, .T.);
#43 = ORIENTED_EDGE('', *, *, #69, .F.);
#44 = ORIENTED_EDGE('', *, *, #70, .F.);
#45 = ORIENTED_EDGE('', *, *, #62, .T.);
#46 = FACE_SURFACE('', (#47), #100, .F.);
#47 = FACE_BOUND('', #48, .F.);
#48 = EDGE_LOOP('', (#49, #50, #51, #52));
#49 = ORIENTED_EDGE('', *, *, #70, .T.);
#50 = ORIENTED_EDGE('', *, *, #71, .F.);
#51 = ORIENTED_EDGE('', *, *, #66, .F.);
#52 = ORIENTED_EDGE('', *, *, #63, .T.);
#53 = FACE_SURFACE('', (#54), #105, .T.);
#54 = FACE_BOUND('', #55, .T.);
#55 = EDGE_LOOP('', (#56, #57, #58, #59));
#56 = ORIENTED_EDGE('', *, *, #65, .T.);
#57 = ORIENTED_EDGE('', *, *, #68, .T.);
#58 = ORIENTED_EDGE('', *, *, #69, .F.);
#59 = ORIENTED_EDGE('', *, *, #71, .F.);
#60 = EDGE_CURVE('', #72, #73, #110, .T.);
#61 = EDGE_CURVE('', #73, #74, #114, .T.);
#62 = EDGE_CURVE('', #75, #74, #118, .T.);
#63 = EDGE_CURVE('', #72, #75, #122, .T.);
#64 = EDGE_CURVE('', #73, #76, #126, .T.);
#65 = EDGE_CURVE('', #77, #76, #130, .T.);
#66 = EDGE_CURVE('', #72, #77, #134, .T.);
#67 = EDGE_CURVE('', #74, #78, #138, .T.);
#68 = EDGE_CURVE('', #76, #78, #142, .T.);
#69 = EDGE_CURVE('', #79, #78, #146, .T.);
#70 = EDGE_CURVE('', #75, #79, #150, .T.);
#71 = EDGE_CURVE('', #77, #79, #154, .T.);
#72 = VERTEX_POINT('', #158);
#73 = VERTEX_POINT('', #159);
#74 = VERTEX_POINT('', #160);
#75 = VERTEX_POINT('', #161);
#76 = VERTEX_POINT('', #162);
#77 = VERTEX_POINT('', #163);
#78 = VERTEX_POINT('', #164);
#79 = VERTEX_POINT('', #165);
#80 = PLANE('', #81);
#81 = AXIS2_PLACEMENT_3D('', #82, #83, #84);
#82 = CARTESIAN_POINT('', (-1000.0, -1000.0, -1000.0));
#83 = DIRECTION('', (0.0, 0.0, 1.0));
#84 = DIRECTION('', (1.0, 0.0, 0.0));
#85 = PLANE('', #86);
#86 = AXIS2_PLACEMENT_3D('', #87, #88, #89);
#87 = CARTESIAN_POINT('', (-1000.0, -1000.0, -1000.0));
#88 = DIRECTION('', (0.0, -1.0, 0.0));
#89 = DIRECTION('', (1.0, 0.0, 0.0));
#90 = PLANE('', #91);
#91 = AXIS2_PLACEMENT_3D('', #92, #93, #94);
#92 = CARTESIAN_POINT('', (1000.0, -1000.0, -1000.0));
#93 = DIRECTION('', (1.0, 0.0, 0.0));
#94 = DIRECTION('', (0.0, 1.0, 0.0));
#95 = PLANE('', #96);
#96 = AXIS2_PLACEMENT_3D('', #97, #98, #99);
#97 = CARTESIAN_POINT('', (-1000.0, 1000.0, -1000.0));
#98 = DIRECTION('', (0.0, -1.0, 0.0));
#99 = DIRECTION('', (1.0, 0.0, 0.0));
#100 = PLANE('', #101);
#101 = AXIS2_PLACEMENT_3D('', #102, #103, #104);
#102 = CARTESIAN_POINT('', (-1000.0, -1000.0, -1000.0));
#103 = DIRECTION('', (1.0, 0.0, 0.0));
#104 = DIRECTION('', (0.0, 1.0, 0.0));
#105 = PLANE('', #106);
#106 = AXIS2_PLACEMENT_3D('', #107, #108, #109);
#107 = CARTESIAN_POINT('', (-1000.0, -1000.0, 1000.0));
#108 = DIRECTION('', (0.0, 0.0, 1.0));
#109 = DIRECTION('', (1.0, 0.0, 0.0));
#110 = LINE('', #111, #112);
#111 = CARTESIAN_POINT('', (-1000.0, -1000.0, -1000.0));
#112 = VECTOR('', #113, 2000.0);
#113 = DIRECTION('', (1.0, 0.0, 0.0));
#114 = LINE('', #115, #116);
#115 = CARTESIAN_POINT('', (1000.0, -1000.0, -1000.0));
#116 = VECTOR('', #117, 2000.0);
#117 = DIRECTION('', (0.0, 1.0, 0.0));
#118 = LINE('', #119, #120);
#119 = CARTESIAN_POINT('', (-1000.0, 1000.0, -1000.0));
#120 = VECTOR('', #121, 2000.0);
#121 = DIRECTION('', (1.0, 0.0, 0.0));
#122 = LINE('', #123, #124);
#123 = CARTESIAN_POINT('', (-1000.0, -1000.0, -1000.0));
#124 = VECTOR('', #125, 2000.0);
#125 = DIRECTION('', (0.0, 1.0, 0.0));
#126 = LINE('', #127, #128);
#127 = CARTESIAN_POINT('', (1000.0, -1000.0, -1000.0));
#128 = VECTOR('', #129, 2000.0);
#129 = DIRECTION('', (0.0, 0.0, 1.0));
#130 = LINE('', #131, #132);
#131 = CARTESIAN_POINT('', (-1000.0, -1000.0, 1000.0));
#132 = VECTOR('', #133, 2000.0);
#133 = DIRECTION('', (1.0, 0.0, 0.0));
#134 = LINE('', #135, #136);
#135 = CARTESIAN_POINT('', (-1000.0, -1000.0, -1000.0));
#136 = VECTOR('', #137, 2000.0);
#137 = DIRECTION('', (0.0, 0.0, 1.0));
#138 = LINE('', #139, #140);
#139 = CARTESIAN_POINT('', (1000.0, 1000.0, -1000.0));
#140 = VECTOR('', #141, 2000.0);
#141 = DIRECTION('', (0.0, 0.0, 1.0));
#142 = LINE('', #143, #144);
#143 = CARTESIAN_POINT('', (1000.0, -1000.0, 1000.0));
#144 = VECTOR('', #145, 2000.0);
#145 = DIRECTION('', (0.0, 1.0, 0.0));
#146 = LINE('', #147, #148);
#147 = CARTESIAN_POINT('', (-1000.0, 1000.0, 1000.0));
#148 = VECTOR('', #149, 2000.0);
#149 = DIRECTION('', (1.0, 0.0, 0.0));
#150 = LINE('', #151, #152);
#151 = CARTESIAN_POINT('', (-1000.0, 1000.0, -1000.0));
#152 = VECTOR('', #153, 2000.0);
#153 = DIRECTION('', (0.0, 0.0, 1.0));
#154 = LINE('', #155, #156);
#155 = CARTESIAN_POINT('', (-1000.0, -1000.0, 1000.0));
#156 = VECTOR('', #157, 2000.0);
#157 = DIRECTION('', (0.0, 1.0, 0.0));
#158 = CARTESIAN_POINT('', (-1000.0, -1000.0, -1000.0));
#159 = CARTESIAN_POINT('', (1000.0, -1000.0, -1000.0));
#160 = CARTESIAN_POINT('', (1000.0, 1000.0, -1000.0));
#161 = CARTESIAN_POINT('', (-1000.0, 1000.0, -1000.0));
#162 = CARTESIAN_POINT('', (1000.0, -1000.0, 1000.0));
#163 = CARTESIAN_POINT('', (-1000.0, -1000.0, 1000.0));
#164 = CARTESIAN_POINT('', (1000.0, 1000.0, 1000.0));
#165 = CARTESIAN_POINT('', (-1000.0, 1000.0, 1000.0));
ENDSEC;
END-ISO-10303-21;

