$MeshFormat
4.1 0 8
$EndMeshFormat
$Entities
5 8 4 0
1 0 0 0 0
2 1 0 0 0
3 1 1 0 0
4 0 1 0 0
5 0.5 0.5 0 0
1 0 0 0 1 0 0 0 2 1 -2
2 1 0 0 1 1 0 0 2 2 -3
3 0 1 0 1 1 0 0 2 3 -4
4 0 0 0 0 1 0 0 2 4 -1
5 0 0 0 0.5 0.5 0 0 2 1 -5
6 0.5 0 0 1 0.5 0 0 2 2 -5
7 0.5 0.5 0 1 1 0 0 2 3 -5
8 0 0.5 0 0.5 1 0 0 2 4 -5
1 0 0 0 1 0.5 0 0 3 1 6 -5
2 0.5 0 0 1 1 0 0 3 2 7 -6
3 0 0.5 0 1 1 0 0 3 3 8 -7
4 0 0 0 0.5 1 0 0 3 4 5 -8
$EndEntities
$Nodes
17 5 1 5
0 1 0 1
1
0 0 0
0 2 0 1
2
1 0 0
0 3 0 1
3
1 1 0
0 4 0 1
4
0 1 0
0 5 0 1
5
0.5 0.5 0
1 1 0 0
1 2 0 0
1 3 0 0
1 4 0 0
1 5 0 0
1 6 0 0
1 7 0 0
1 8 0 0
2 1 0 0
2 2 0 0
2 3 0 0
2 4 0 0
$EndNodes
$Elements
17 17 1 17
0 1 15 1
1 1
0 2 15 1
2 2
0 3 15 1
3 3
0 4 15 1
4 4
0 5 15 1
5 5
1 1 1 1
6 1 2
1 2 1 1
7 2 3
1 3 1 1
8 3 4
1 4 1 1
9 4 1
1 5 1 1
10 1 5
1 6 1 1
11 2 5
1 7 1 1
12 3 5
1 8 1 1
13 4 5
2 1 2 1
14 1 2 5
2 2 2 1
15 2 3 5
2 3 2 1
16 3 4 5
2 4 2 1
17 1 5 4
$EndElements
