$MeshFormat
4.1 0 8
$EndMeshFormat
$Entities
35 35 1 0
1 2.2 0.2 0 0
2 0.7069848480983498 0.4099999999999999 0 0
3 0.41 0.41 0 0
4 0.28698484809835 0.41 0 0
5 0.2 0.41 0 0
6 0.1130151519016501 0.41 0 0
7 0 0.4 0 0
8 0 0.2828427124746191 0 0
9 0 0.2 0 0
10 0 0.117157287525381 0 0
11 0 8.326672684688674e-17 0 0
12 0.1171572875253808 0 0 0
13 0.2 0 0 0
14 0.2828427124746191 0 0 0
15 0.3999999999999999 0 0 0
16 0.6828427124746181 2.775557561562891e-17 0 0
17 2.2 0.41 0 0
18 0 0.41 0 0
19 2.2 0 0 0
20 0.25 0.2 0 0
21 0.2461939766255644 0.2191341716182545 0 0
22 0.2353553390593274 0.2353553390593274 0 0
23 0.2191341716182545 0.2461939766255644 0 0
24 0.2 0.25 0 0
25 0.1808658283817455 0.2461939766255644 0 0
26 0.1646446609406726 0.2353553390593274 0 0
27 0.1538060233744357 0.2191341716182545 0 0
28 0.15 0.2 0 0
29 0.1538060233744357 0.1808658283817455 0 0
30 0.1646446609406726 0.1646446609406726 0 0
31 0.1808658283817455 0.1538060233744357 0 0
32 0.2 0.15 0 0
33 0.2191341716182545 0.1538060233744357 0 0
34 0.2353553390593274 0.1646446609406726 0 0
35 0.2461939766255643 0.1808658283817455 0 0
1 2.2 0.2 0 2.2 0.41 0 0 2 1 -17
2 0.7069848480983498 0.4099999999999999 0 2.2 0.41 0 0 2 17 -2
3 0.41 0.4099999999999999 0 0.7069848480983498 0.41 0 0 2 2 -3
4 0.28698484809835 0.41 0 0.41 0.41 0 0 2 3 -4
5 0.2 0.41 0 0.28698484809835 0.41 0 0 2 4 -5
6 0.1130151519016501 0.41 0 0.2 0.41 0 0 2 5 -6
7 0 0.41 0 0.1130151519016501 0.41 0 0 2 6 -18
8 0 0.4 0 0 0.41 0 0 2 18 -7
9 0 0.2828427124746191 0 0 0.4 0 0 2 7 -8
10 0 0.2 0 0 0.2828427124746191 0 0 2 8 -9
11 0 0.117157287525381 0 0 0.2 0 0 2 9 -10
12 0 8.326672684688674e-17 0 0 0.117157287525381 0 0 2 10 -11
13 0 0 0 0.1171572875253808 8.326672684688674e-17 0 0 2 11 -12
14 0.1171572875253808 0 0 0.2 0 0 0 2 12 -13
15 0.2 0 0 0.2828427124746191 0 0 0 2 13 -14
16 0.2828427124746191 0 0 0.3999999999999999 0 0 0 2 14 -15
17 0.3999999999999999 0 0 0.6828427124746181 2.775557561562891e-17 0 0 2 15 -16
18 0.6828427124746181 0 0 2.2 2.775557561562891e-17 0 0 2 16 -19
19 2.2 0 0 2.2 0.2 0 0 2 19 -1
20 0.2461939766255644 0.2 0 0.25 0.2191341716182545 0 0 2 20 -21
21 0.2353553390593274 0.2191341716182545 0 0.2461939766255644 0.2353553390593274 0 0 2 21 -22
22 0.2191341716182545 0.2353553390593274 0 0.2353553390593274 0.2461939766255644 0 0 2 22 -23
23 0.2 0.2461939766255644 0 0.2191341716182545 0.25 0 0 2 23 -24
24 0.1808658283817455 0.2461939766255644 0 0.2 0.25 0 0 2 24 -25
25 0.1646446609406726 0.2353553390593274 0 0.1808658283817455 0.2461939766255644 0 0 2 25 -26
26 0.1538060233744357 0.2191341716182545 0 0.1646446609406726 0.2353553390593274 0 0 2 26 -27
27 0.15 0.2 0 0.1538060233744357 0.2191341716182545 0 0 2 27 -28
28 0.15 0.1808658283817455 0 0.1538060233744357 0.2 0 0 2 28 -29
29 0.1538060233744357 0.1646446609406726 0 0.1646446609406726 0.1808658283817455 0 0 2 29 -30
30 0.1646446609406726 0.1538060233744357 0 0.1808658283817455 0.1646446609406726 0 0 2 30 -31
31 0.1808658283817455 0.15 0 0.2 0.1538060233744357 0 0 2 31 -32
32 0.2 0.15 0 0.2191341716182545 0.1538060233744357 0 0 2 32 -33
33 0.2191341716182545 0.1538060233744357 0 0.2353553390593274 0.1646446609406726 0 0 2 33 -34
34 0.2353553390593274 0.1646446609406726 0 0.2461939766255643 0.1808658283817455 0 0 2 34 -35
35 0.2461939766255643 0.1808658283817455 0 0.25 0.2 0 0 2 35 -20
38 0 0 0 2.2 0.41 0 0 35 1 2 3 4 5 6 7 8 9 10 11 12 13 14 15 16 17 18 19 -35 -34 -33 -32 -31 -30 -29 -28 -27 -26 -25 -24 -23 -22 -21 -20
$EndEntities
$Nodes
71 439 1 439
0 1 0 1
1
2.2 0.2 0
0 2 0 1
2
0.7069848480983498 0.4099999999999999 0
0 3 0 1
3
0.41 0.41 0
0 4 0 1
4
0.28698484809835 0.41 0
0 5 0 1
5
0.2 0.41 0
0 6 0 1
6
0.1130151519016501 0.41 0
0 7 0 1
7
0 0.4 0
0 8 0 1
8
0 0.2828427124746191 0
0 9 0 1
9
0 0.2 0
0 10 0 1
10
0 0.117157287525381 0
0 11 0 1
11
0 8.326672684688674e-17 0
0 12 0 1
12
0.1171572875253808 0 0
0 13 0 1
13
0.2 0 0
0 14 0 1
14
0.2828427124746191 0 0
0 15 0 1
15
0.3999999999999999 0 0
0 16 0 1
16
0.6828427124746181 2.775557561562891e-17 0
0 17 0 1
17
2.2 0.41 0
0 18 0 1
18
0 0.41 0
0 19 0 1
19
2.2 0 0
0 20 0 1
20
0.25 0.2 0
0 21 0 1
21
0.2461939766255644 0.2191341716182545 0
0 22 0 1
22
0.2353553390593274 0.2353553390593274 0
0 23 0 1
23
0.2191341716182545 0.2461939766255644 0
0 24 0 1
24
0.2 0.25 0
0 25 0 1
25
0.1808658283817455 0.2461939766255644 0
0 26 0 1
26
0.1646446609406726 0.2353553390593274 0
0 27 0 1
27
0.1538060233744357 0.2191341716182545 0
0 28 0 1
28
0.15 0.2 0
0 29 0 1
29
0.1538060233744357 0.1808658283817455 0
0 30 0 1
30
0.1646446609406726 0.1646446609406726 0
0 31 0 1
31
0.1808658283817455 0.1538060233744357 0
0 32 0 1
32
0.2 0.15 0
0 33 0 1
33
0.2191341716182545 0.1538060233744357 0
0 34 0 1
34
0.2353553390593274 0.1646446609406726 0
0 35 0 1
35
0.2461939766255643 0.1808658283817455 0
1 1 0 2
36
37
2.2 0.2699999999997472 0
2.2 0.3399999999997652 0
1 2 0 21
38
39
40
41
42
43
44
45
46
47
48
49
50
51
52
53
54
55
56
57
58
2.132135674913723 0.41 0
2.064271349827304 0.41 0
1.99640702474085 0.41 0
1.92854269965462 0.41 0
1.860678374568391 0.41 0
1.79281404948213 0.41 0
1.724949724395943 0.41 0
1.657085399309698 0.41 0
1.589221074223421 0.41 0
1.521356749137144 0.41 0
1.45349242405091 0.41 0
1.385628098964274 0.4099999999999999 0
1.317763773877769 0.4099999999999999 0
1.249899448791263 0.4099999999999999 0
1.182035123704651 0.4099999999999999 0
1.114170798618042 0.4099999999999999 0
1.046306473531399 0.4099999999999999 0
0.9784421484447947 0.4099999999999999 0
0.910577823358218 0.4099999999999999 0
0.8427134982716098 0.4099999999999999 0
0.7748491731849503 0.4099999999999999 0
1 3 0 4
59
60
61
62
0.6475878784788447 0.4099999999999999 0
0.588190908859318 0.41 0
0.5287939392397044 0.41 0
0.4693969696198738 0.41 0
1 4 0 1
63
0.3484924240493377 0.41 0
1 5 0 1
64
0.2434924240492185 0.41 0
1 6 0 1
65
0.156507575951061 0.41 0
1 7 0 1
66
0.05650757595096603 0.41 0
1 8 0 0
1 9 0 1
67
0 0.3414213562374397 0
1 10 0 1
68
0 0.2414213562374016 0
1 11 0 1
69
0 0.1585786437628097 0
1 12 0 1
70
0 0.05857864376283426 0
1 13 0 1
71
0.05857864376253683 4.163336342355254e-17 0
1 14 0 1
72
0.1585786437626281 0 0
1 15 0 1
73
0.2414213562372174 0 0
1 16 0 1
74
0.3414213562371685 0 0
1 17 0 4
75
76
77
78
0.4565685424947175 5.55111512310556e-18 0
0.5131370849895044 1.110223024621793e-17 0
0.5697056274845279 1.665334536935351e-17 0
0.6262741699795947 2.220446049249334e-17 0
1 18 0 21
79
80
81
82
83
84
85
86
87
88
89
90
91
92
93
94
95
96
97
98
99
0.7518044073620587 2.649395854219264e-17 0
0.8207661022494479 2.523234146875731e-17 0
0.8897277971368214 2.397072439532226e-17 0
0.9586894920241573 2.27091073218879e-17 0
1.027651186911302 2.144749024845704e-17 0
1.096612881798721 2.018587317502116e-17 0
1.165574576686187 1.892425610158442e-17 0
1.23453627157322 1.766263902815562e-17 0
1.303497966460788 1.6401021954717e-17 0
1.372459661348144 1.513940488128228e-17 0
1.441421356235184 1.387778780785333e-17 0
1.510383051123147 1.26161707344075e-17 0
1.579344746010881 1.135455366096586e-17 0
1.648306440898316 1.009293658752969e-17 0
1.717268135786231 8.831319514084732e-18 0
1.786229830673784 7.569702440646401e-18 0
1.855191525561495 6.30808536720519e-18 0
1.924153220449331 5.046468293761674e-18 0
1.993114915336935 3.784851220322413e-18 0
2.062076610225115 2.523234146872623e-18 0
2.131038305113003 1.26161707342817e-18 0
1 19 0 2
100
101
2.2 0.06666666666650199 0
2.2 0.1333333333331543 0
1 20 0 0
1 21 0 0
1 22 0 0
1 23 0 0
1 24 0 0
1 25 0 0
1 26 0 0
1 27 0 0
1 28 0 0
1 29 0 0
1 30 0 0
1 31 0 0
1 32 0 0
1 33 0 0
1 34 0 0
1 35 0 0
2 38 0 338
102
103
104
105
106
107
108
109
110
111
112
113
114
115
116
117
118
119
120
121
122
123
124
125
126
127
128
129
130
131
132
133
134
135
136
137
138
139
140
141
142
143
144
145
146
147
148
149
150
151
152
153
154
155
156
157
158
159
160
161
162
163
164
165
166
167
168
169
170
171
172
173
174
175
176
177
178
179
180
181
182
183
184
185
186
187
188
189
190
191
192
193
194
195
196
197
198
199
200
201
202
203
204
205
206
207
208
209
210
211
212
213
214
215
216
217
218
219
220
221
222
223
224
225
226
227
228
229
230
231
232
233
234
235
236
237
238
239
240
241
242
243
244
245
246
247
248
249
250
251
252
253
254
255
256
257
258
259
260
261
262
263
264
265
266
267
268
269
270
271
272
273
274
275
276
277
278
279
280
281
282
283
284
285
286
287
288
289
290
291
292
293
294
295
296
297
298
299
300
301
302
303
304
305
306
307
308
309
310
311
312
313
314
315
316
317
318
319
320
321
322
323
324
325
326
327
328
329
330
331
332
333
334
335
336
337
338
339
340
341
342
343
344
345
346
347
348
349
350
351
352
353
354
355
356
357
358
359
360
361
362
363
364
365
366
367
368
369
370
371
372
373
374
375
376
377
378
379
380
381
382
383
384
385
386
387
388
389
390
391
392
393
394
395
396
397
398
399
400
401
402
403
404
405
406
407
408
409
410
411
412
413
414
415
416
417
418
419
420
421
422
423
424
425
426
427
428
429
430
431
432
433
434
435
436
437
438
439
0.4123688398432138 0.2422427886908847 0
0.6147746351147378 0.2082917547156457 0
0.3319723858852151 0.1122269627968186 0
0.2774837417413387 0.3170363729420906 0
0.1221997427649603 0.3191085913408693 0
0.126474568904795 0.08804055430511785 0
0.8301797361821521 0.2103877026805099 0
1.962474862197737 0.2052592424371699 0
1.704643960686024 0.2120504228913888 0
1.437848477774876 0.2155002442325445 0
1.146291569932925 0.2083142024963485 0
0.07608720282718839 0.1753522121657207 0
0.2246477878342798 0.07608720282718548 0
0.3345623841084205 0.2260147139899064 0
0.08469758977916417 0.2509392448933019 0
0.1984119220038238 0.3301508900715523 0
0.5101988090932743 0.1411203087068456 0
0.9894998018860185 0.2423929194717822 0
0.2867283908504644 0.2583937964322613 0
0.3006270154656918 0.1799840421313697 0
0.1159164292356895 0.1422077605578726 0
0.2572047243195484 0.1164762602838614 0
0.1782730722494178 0.1004061886580856 0
0.5220921703692994 0.2973014014523933 0
1.82682668172575 0.2709197128809193 0
1.563500820188521 0.257925874066131 0
1.284493674580812 0.25013702627756 0
0.7069251298323757 0.1153289664059985 0
0.3440515942588267 0.2917694679858304 0
0.7113426887623016 0.2814117467680969 0
1.261420721529147 0.1324243496495478 0
1.550192291027 0.1400960036959548 0
1.824736384436048 0.1397607573555253 0
0.1463184947125155 0.2782078075093869 0
2.067943798641255 0.1306402574871253 0
0.06387501536979924 0.1087675389543507 0
0.930670006802414 0.1328159390129331 0
2.069805574053946 0.2795715681798677 0
0.5900255760751004 0.1001380270265928 0
1.048749128691282 0.1213025020966439 0
0.2855383985222917 0.05778107147198877 0
0.3732808247550529 0.1679856388582018 0
0.06016648680417636 0.3105791876308607 0
0.4107885058706844 0.0950295276362515 0
0.1082349995000671 0.2155262401102137 0
0.2178458995005823 0.2897173953317876 0
0.1515499110308663 0.1266035990233811 0
0.2148916639247188 0.1157670982389619 0
0.6218410637403534 0.3124520638915055 0
0.2884521738254506 0.2118411639500543 0
1.083067267399698 0.3000190690161785 0
0.8879827683984511 0.3002428559810214 0
0.2717159252731297 0.152080950733878 0
0.4152476498868234 0.3248321190694201 0
0.1694334080806939 0.05105572209877769 0
1.364825233154034 0.1027654401973957 0
0.1315778213791612 0.2457182381143432 0
0.1167643386685158 0.1876315500550211 0
0.2436117681671066 0.2722524597203966 0
0.1838646367302684 0.2811179489857192 0
1.644677743757721 0.1012289222320808 0
1.924600801284083 0.3095287574588429 0
1.723128538544743 0.3087551933579142 0
1.465632562149932 0.3066861732170367 0
1.924092564430999 0.1062182467177585 0
1.191170652801024 0.2975052834323591 0
0.8122492704792101 0.1034455674248372 0
0.4888158881153019 0.2160342252623572 0
1.164911948298427 0.1033088245277995 0
0.04157130179604249 0.2137993010217747 0
0.1558308565384574 0.3596762621880975 0
1.367215075019272 0.3140731652830663 0
1.652382965906329 0.3106680990856869 0
0.8005947386719976 0.3244628365233605 0
0.2444164006755404 0.3574790921460439 0
1.46003540162604 0.09157522231519602 0
0.07307164771701216 0.04651343550939012 0
0.436028338822342 0.1704264530780108 0
0.1611449436634487 0.3159639743649567 0
1.739067676759255 0.08899992312248742 0
0.7013784974285168 0.1975386674800862 0
0.08677078775985043 0.3719892309306059 0
0.4686183629411002 0.06684931808793784 0
1.328716108258769 0.1936418770994294 0
0.3347110993913203 0.3608146906733294 0
0.101864500273436 0.2725459934355982 0
2.1004373890732 0.207261276615409 0
1.599202520481337 0.1938199862316075 0
0.1336576585744141 0.04243769239710187 0
1.011305431370128 0.3100955949501689 0
0.534251279512525 0.1805426792371683 0
1.876973437150148 0.1956896797330414 0
0.9043092846091092 0.2084283312246949 0
1.060368244956088 0.2026127303541665 0
0.6632575100549514 0.0697904290943764 0
0.3690653417725651 0.04744375213732718 0
0.03119573431490189 0.2623786864360212 0
0.04591384415308197 0.1445449767905712 0
1.771775695441125 0.1885763732135095 0
1.499979411603979 0.1896015858927675 0
2.000157481333312 0.08298678444002677 0
1.998966747722644 0.3225909929901151 0
0.486356905820913 0.3484827477606292 0
0.2596204566112521 0.239790713467584 0
0.5680584702518048 0.3443519617567359 0
0.4637243050892704 0.2736105631224973 0
1.223752478436757 0.2059365274895371 0
0.1408436584590202 0.1602275305391855 0
0.1880214296524972 0.1274552070590295 0
0.9882914548501374 0.0754929860252026 0
0.272332920439853 0.1829563894227093 0
0.68219736903428 0.3448933881674486 0
0.6543855193959142 0.1485627008883343 0
0.5566276503244327 0.068505818637348 0
0.08174383953783267 0.1399024921531977 0
0.2491504688964842 0.04159638149123871 0
0.2410562411271956 0.1435887459477805 0
0.294209463841323 0.1291957900517592 0
2.123915806805336 0.07636889187290771 0
1.826746212025263 0.3417560215067169 0
1.555328056259847 0.3591723742586381 0
1.284118910523179 0.3595822045557718 0
0.1034285903426739 0.1137115441833183 0
0.5847772140295471 0.2610933218937866 0
2.034763225353246 0.2034088576642516 0
2.123699248583943 0.3339240615897552 0
0.9919848767193944 0.1648124213893399 0
0.1583853445967363 0.07809648886422693 0
0.6509355059477797 0.2502545548394609 0
0.1595823842559541 0.2605339552062041 0
0.2417218702468096 0.3230077666384586 0
0.363354201799017 0.2538520407396548 0
1.300450180521651 0.07511605495162377 0
0.07637601867284749 0.2072743729943385 0
1.586832629969271 0.07451700201895448 0
0.3020407637342624 0.2891869687785358 0
0.7657929933883572 0.2323097732066019 0
0.2135660145332163 0.04226567641963688 0
1.861866885628583 0.07403223456330264 0
0.1927801314095003 0.3675291840322458 0
0.2582826099119127 0.08309102691661545 0
1.222450197079665 0.06785211077848829 0
1.098520295350084 0.07120995172144022 0
0.865447990279493 0.07032130554052479 0
0.7573455312651273 0.06894252041885779 0
0.04345573928545333 0.1792622007858869 0
0.369633227837986 0.2115710005787413 0
0.2705447431556034 0.2833396512849121 0
0.9425620421747501 0.348857841276383 0
0.3199664117757654 0.1494486422356351 0
0.2864477091894665 0.3570506432383067 0
0.3846191397338412 0.3647510666509509 0
0.321547008131085 0.2591698634574355 0
1.366751500027712 0.2494095307745423 0
2.004190426472949 0.2596747177014453 0
0.769711902383204 0.1645897616388859 0
0.2134877745137866 0.2678076214740491 0
0.1327030621051337 0.2133861932340696 0
1.140721934254724 0.3434181154770913 0
0.8572906641600579 0.1505646366085891 0
0.4210081506158134 0.0418645195723033 0
1.637712031767748 0.2453491675575606 0
0.3373735953205921 0.1831697489736463 0
0.3760519464129883 0.1248391043637477 0
0.1927220039201546 0.07471596819252407 0
2.142091608676116 0.1500358248662775 0
0.3880869415974332 0.2860961456912848 0
1.117927252343671 0.144344091925469 0
1.985553638819144 0.1486280002715656 0
0.09623304913166142 0.3012838233165442 0
0.551074172438884 0.1271709615993272 0
1.52128145690292 0.06601669038058899 0
0.749198672570103 0.3487211429987477 0
0.6143204947491615 0.05361841080268191 0
2.136045936140605 0.2702715904884473 0
0.538629723262726 0.2340344443233557 0
1.729598308841584 0.1532820177934999 0
0.1230757895168104 0.350087373994785 0
1.411963321769473 0.05822441636749316 0
0.1005543120505048 0.1652435013217674 0
0.8304022132125992 0.2681504813894233 0
1.690089916898803 0.3585425798635452 0
1.418841514106485 0.3486035660514177 0
0.6018375277985691 0.1592961134015992 0
0.03432188084696508 0.3707106781187199 0
0.3245858598765806 0.07194061068071064 0
0.3126976648817782 0.03172331658615275 0
1.798596373339306 0.06687263258041252 0
1.458640634412075 0.1553739056965331 0
1.68896312319664 0.05597428443795759 0
1.138718608050564 0.2739417676677642 0
0.04195800917866519 0.08038287369335953 0
2.062633192675558 0.06277069380819578 0
1.889152071719632 0.3543612583349518 0
1.762845266070632 0.3547554636294558 0
1.488570531378987 0.3570435378272896 0
2.062913680555622 0.3476899541577193 0
0.161579139130582 0.1415359665067545 0
0.1522890447774142 0.1040584557459 0
0.1309914735527238 0.1190838648320164 0
0.8529137752708466 0.3501265236882872 0
1.18872232683322 0.1593163403564156 0
0.2660112572436173 0.2136258633160171 0
0.08667690959099113 0.08308429175118801 0
1.215609964684654 0.3550367062171119 0
0.6215751380729202 0.3643394827631379 0
1.890552676321037 0.2508871260328067 0
0.2129475924350504 0.134908057223321 0
0.2345656122970629 0.1001953266070063 0
0.4441618124666015 0.2103814055717764 0
0.06627052411827679 0.275961786058551 0
0.9399414772798669 0.2720571774196109 0
0.2542376906489388 0.1639951817894438 0
1.76229161140648 0.2514509111923789 0
0.3117848181437231 0.2063292910485807 0
1.067991036027015 0.3580256831826344 0
1.950271413758141 0.05144608357060341 0
1.494233334707587 0.2502081822366315 0
0.7066269784142174 0.04616836740844413 0
1.948869564096224 0.3598770683970436 0
0.1922406374207189 0.3038413802147756 0
0.2430966076668386 0.2942665882831477 0
0.03237866239569643 0.1163211269955923 0
0.1075576589642759 0.2430122501285929 0
1.044672288334211 0.2613975511255232 0
0.4547006660125633 0.1258151775493398 0
0.4050458391698746 0.1915190845488393 0
1.047191414693569 0.05495821944191073 0
0.4401667754578507 0.3641360772118858 0
0.09560337434382474 0.1902055753294123 0
1.225179066034391 0.2614092602234874 0
0.1874936733068987 0.2621547870598087 0
0.1475461070510695 0.23524730387742 0
0.1343087926917123 0.3824184971871918 0
0.3037665615468684 0.2352081236548515 0
1.92472665335142 0.1595530078509944 0
0.9306787955010529 0.05393387652582414 0
0.1366637186456003 0.1866731950560392 0
1.659254057965902 0.1655429644247851 0
1.606090747687173 0.1356934950357866 0
1.318333201368909 0.137216039250304 0
1.384791671635687 0.1680695992014429 0
0.1112536260330014 0.06108980386159171 0
0.09874377272246906 0.03000818635361675 0
0.1307103053298814 0.2927621359038028 0
0.2358121278922022 0.2535966369767829 0
1.42321093873853 0.2713984345233906 0
0.3143666715255039 0.3233407655491968 0
0.5089405900526498 0.09494514016445776 0
0.4780261323371012 0.1740533749009164 0
1.880688637555394 0.1349124637547464 0
0.2792737779452497 0.031552448956288 0
0.03773960674156655 0.2909175281763212 0
0.7706815996890906 0.2854468661515386 0
0.2261989810667352 0.3811363659425135 0
0.2030548941415121 0.09677961011496095 0
1.695803248651434 0.264173930506288 0
0.3669254861565771 0.3257182000019306 0
0.2877107316614618 0.09273625757809109 0
0.09040998777950857 0.3326509769616358 0
1.280002137498498 0.1838776967594679 0
0.2650830546230259 0.3838948863304201 0
0.1474420652999483 0.3367613124556625 0
1.869928584951396 0.3053903448930284 0
1.1486189699825 0.05120942824069132 0
0.1635291602476267 0.2906342144443586 0
1.95354311794355 0.2636142413164604 0
1.547897701067022 0.2092462849371546 0
1.825526081080098 0.2162140934013635 0
1.35041978913251 0.3651410894976169 0
1.62222476421682 0.3617601540728796 0
1.352500045657886 0.0496080382781732 0
0.8070559904330978 0.05102971042855568 0
0.3113916439771954 0.3841626258358964 0
0.5741922295977511 0.3037996872486053 0
0.6667003267407767 0.2984742857813815 0
0.5009826974704106 0.2558077402994118 0
0.05987053070526539 0.2391490010662672 0
0.2179002335677378 0.31345657185569 0
0.1587803967183093 0.02865458589059296 0
1.782569095189714 0.3059771853088776 0
1.472758345484414 0.0415942247789161 0
0.2955842146733492 0.1558897238527067 0
0.42803030997165 0.2888137310703897 0
0.4093160201739175 0.1459358310057318 0
0.1301554591653918 0.2666945661319585 0
0.1390658864940986 0.1384887531160325 0
0.167564887885484 0.1190918439057837 0
0.1735606666716664 0.3400804056639841 0
1.633646318040745 0.04999116630432229 0
0.03224016572095191 0.03224016572108566 0
1.416729907929168 0.117309842585252 0
0.08927021344740756 0.2290702115538893 0
1.525713023878053 0.3057904386070521 0
1.751748983230006 0.03872403911903697 0
0.120130768207269 0.1643678827729885 0
0.8059195799063228 0.3704028429243077 0
0.2637680361036545 0.2618364797352506 0
0.2192072068816432 0.3474120769367356 0
0.5247865697733879 0.367232416709499 0
1.265233653908831 0.03574204143252802 0
0.8785630959364359 0.2518533097390521 0
0.6545584412271066 0.03138209009012256 0
1.252695004283528 0.3045706723649074 0
0.027709359971672 0.2368173318858412 0
1.094623595734697 0.2492570641319962 0
1.183805998270888 0.247801814495794 0
0.7615579584899792 0.1130767039721448 0
0.5749349129137405 0.2131134357843564 0
0.06054688633219563 0.3417510683846753 0
1.315597757077108 0.3037535534831544 0
1.592810277036219 0.3067776846079914 0
2.16115156815198 0.04489968465706415 0
0.1686934780203277 0.3835170374461389 0
0.9547852345380067 0.2028851845080983 0
0.6499368778752883 0.1911616154089346 0
0.2607525180235016 0.336891068870115 0
1.009321426309618 0.3673958238818372 0
1.771333327085971 0.1265914739025353 0
0.183512084637742 0.02480841200406929 0
0.2809157680155305 0.2317719321641536 0
2.159340007497927 0.3684774337219279 0
1.693853228623702 0.113788427699772 0
0.5124238795056454 0.0402092564059482 0
0.0321291434541506 0.3230370885037726 0
0.1361023285809999 0.06617658299511819 0
2.155714986777984 0.2195137383939762 0
0.6388403011121755 0.107138651603379 0
1.902349245791159 0.04418048464480918 0
0.3625946947550907 0.0915868347203638 0
0.2331961621965677 0.1215841819873979 0
2.165589944544184 0.09999999999982816 0
1.49639166652207 0.1242846311005232 0
0.4592696860993011 0.3161961066145358 0
1.209376298435115 0.1157254063280628 0
2.16429957244889 0.3061959379398496 0
0.3500081147458576 0.1446413735715561 0
0.06249777105035308 0.1584855928430298 0
$EndNodes
$Elements
71 913 1 913
0 1 15 1
1 1
0 2 15 1
2 2
0 3 15 1
3 3
0 4 15 1
4 4
0 5 15 1
5 5
0 6 15 1
6 6
0 7 15 1
7 7
0 8 15 1
8 8
0 9 15 1
9 9
0 10 15 1
10 10
0 11 15 1
11 11
0 12 15 1
12 12
0 13 15 1
13 13
0 14 15 1
14 14
0 15 15 1
15 15
0 16 15 1
16 16
0 17 15 1
17 17
0 18 15 1
18 18
0 19 15 1
19 19
0 20 15 1
20 20
0 21 15 1
21 21
0 22 15 1
22 22
0 23 15 1
23 23
0 24 15 1
24 24
0 25 15 1
25 25
0 26 15 1
26 26
0 27 15 1
27 27
0 28 15 1
28 28
0 29 15 1
29 29
0 30 15 1
30 30
0 31 15 1
31 31
0 32 15 1
32 32
0 33 15 1
33 33
0 34 15 1
34 34
0 35 15 1
35 35
1 1 1 3
36 1 36
37 36 37
38 37 17
1 2 1 22
39 17 38
40 38 39
41 39 40
42 40 41
43 41 42
44 42 43
45 43 44
46 44 45
47 45 46
48 46 47
49 47 48
50 48 49
51 49 50
52 50 51
53 51 52
54 52 53
55 53 54
56 54 55
57 55 56
58 56 57
59 57 58
60 58 2
1 3 1 5
61 2 59
62 59 60
63 60 61
64 61 62
65 62 3
1 4 1 2
66 3 63
67 63 4
1 5 1 2
68 4 64
69 64 5
1 6 1 2
70 5 65
71 65 6
1 7 1 2
72 6 66
73 66 18
1 8 1 1
74 18 7
1 9 1 2
75 7 67
76 67 8
1 10 1 2
77 8 68
78 68 9
1 11 1 2
79 9 69
80 69 10
1 12 1 2
81 10 70
82 70 11
1 13 1 2
83 11 71
84 71 12
1 14 1 2
85 12 72
86 72 13
1 15 1 2
87 13 73
88 73 14
1 16 1 2
89 14 74
90 74 15
1 17 1 5
91 15 75
92 75 76
93 76 77
94 77 78
95 78 16
1 18 1 22
96 16 79
97 79 80
98 80 81
99 81 82
100 82 83
101 83 84
102 84 85
103 85 86
104 86 87
105 87 88
106 88 89
107 89 90
108 90 91
109 91 92
110 92 93
111 93 94
112 94 95
113 95 96
114 96 97
115 97 98
116 98 99
117 99 19
1 19 1 3
118 19 100
119 100 101
120 101 1
1 20 1 1
121 20 21
1 21 1 1
122 21 22
1 22 1 1
123 22 23
1 23 1 1
124 23 24
1 24 1 1
125 24 25
1 25 1 1
126 25 26
1 26 1 1
127 26 27
1 27 1 1
128 27 28
1 28 1 1
129 28 29
1 29 1 1
130 29 30
1 30 1 1
131 30 31
1 31 1 1
132 31 32
1 32 1 1
133 32 33
1 33 1 1
134 33 34
1 34 1 1
135 34 35
1 35 1 1
136 35 20
2 38 2 777
137 183 279 335
138 207 102 311
139 188 139 226
140 257 168 261
141 154 123 219
142 113 235 247
143 158 146 259
144 138 211 228
145 211 141 228
146 121 151 212
147 123 154 218
148 146 159 259
149 156 229 427
150 174 164 283
151 164 174 358
152 52 260 306
153 169 207 311
154 6 183 335
155 111 201 319
156 195 119 228
157 182 129 257
158 141 195 228
159 129 182 214
160 110 200 315
161 22 21 205
162 202 97 294
163 108 257 261
164 204 125 401
165 149 210 357
166 125 206 401
167 128 185 255
168 111 319 348
169 284 173 348
170 127 189 263
171 193 109 308
172 20 35 212
173 165 284 348
174 199 69 324
175 147 161 258
176 114 217 242
177 110 315 358
178 192 169 351
179 40 203 298
180 227 38 298
181 145 184 327
182 38 39 298
183 180 106 346
184 99 220 294
185 6 66 183
186 118 192 351
187 182 131 230
188 97 98 294
189 158 259 334
190 210 149 309
191 171 9 247
192 180 346 367
193 136 188 226
194 231 161 367
195 85 86 243
196 190 156 427
197 308 109 368
198 160 147 258
199 30 29 209
200 32 31 210
201 80 81 245
202 259 159 339
203 231 158 334
204 98 99 294
205 85 243 366
206 189 127 369
207 184 145 262
208 80 245 374
209 260 167 306
210 2 59 213
211 210 124 357
212 225 103 230
213 346 135 367
214 250 56 302
215 161 231 333
216 267 1 428
217 199 137 216
218 129 196 320
219 115 233 254
220 39 40 298
221 199 216 439
222 131 182 238
223 150 225 230
224 73 217 239
225 13 73 239
226 30 209 299
227 210 31 299
228 258 161 333
229 197 287 288
230 22 205 347
231 214 182 417
232 205 21 304
233 235 171 247
234 34 33 218
235 213 59 307
236 209 29 339
237 82 83 211
238 207 169 378
239 185 128 362
240 32 210 309
241 196 129 429
242 212 154 384
243 190 12 381
244 213 131 274
245 135 231 367
246 327 184 350
247 159 146 331
248 158 231 387
249 203 163 368
250 238 182 257
251 118 327 350
252 206 60 401
253 102 207 385
254 166 202 270
255 101 1 267
256 20 212 304
257 69 10 324
258 122 216 224
259 9 171 406
260 191 152 317
261 137 293 305
262 212 35 314
263 313 194 416
264 112 195 269
265 274 131 355
266 195 141 269
267 124 229 266
268 75 184 262
269 69 199 247
270 184 75 425
271 160 258 347
272 9 69 247
273 133 189 369
274 145 197 262
275 129 214 429
276 207 125 435
277 60 61 401
278 218 33 309
279 156 190 381
280 212 151 304
281 218 154 314
282 91 236 273
283 134 193 370
284 74 15 197
285 125 204 435
286 256 203 368
287 188 136 267
288 226 139 256
289 194 108 261
290 189 133 341
291 74 197 288
292 90 91 273
293 233 130 254
294 34 218 314
295 194 138 416
296 152 191 326
297 191 119 326
298 138 194 261
299 215 140 272
300 10 70 293
301 194 313 403
302 110 263 340
303 263 189 340
304 249 105 323
305 106 180 364
306 216 137 224
307 26 231 334
308 154 212 314
309 151 121 316
310 150 213 307
311 202 136 270
312 116 187 312
313 127 263 413
314 169 192 277
315 287 104 360
316 192 118 272
317 121 251 264
318 231 25 333
319 168 245 261
320 245 138 261
321 200 134 370
322 217 114 239
323 119 191 313
324 8 68 198
325 105 232 323
326 188 267 428
327 175 282 302
328 201 133 369
329 197 15 262
330 139 188 276
331 26 25 231
332 104 219 360
333 121 212 384
334 275 196 429
335 95 240 289
336 109 193 337
337 217 142 242
338 119 313 416
339 111 255 343
340 255 185 343
341 146 158 325
342 246 129 320
343 209 339 397
344 77 215 425
345 128 208 362
346 216 122 281
347 282 153 302
348 217 73 353
349 238 108 282
350 193 134 352
351 94 95 289
352 12 72 381
353 234 132 243
354 2 213 274
355 132 208 303
356 108 194 403
357 145 327 386
358 197 145 431
359 71 12 345
360 119 195 326
361 238 282 355
362 264 251 438
363 122 224 301
364 42 43 221
365 46 47 222
366 50 51 223
367 195 112 407
368 139 203 256
369 211 83 329
370 128 255 412
371 62 204 401
372 239 114 266
373 347 205 399
374 52 53 260
375 56 57 302
376 76 77 425
377 153 250 302
378 166 270 337
379 200 110 278
380 206 125 376
381 66 7 286
382 7 67 286
383 349 130 359
384 231 135 387
385 233 115 248
386 55 250 419
387 136 226 270
388 133 201 434
389 8 354 426
390 233 102 268
391 136 202 294
392 146 235 331
393 187 271 312
394 161 147 322
395 122 301 388
396 134 200 420
397 141 244 269
398 140 275 429
399 13 239 421
400 244 170 269
401 174 263 358
402 138 228 416
403 48 284 297
404 203 40 321
405 219 123 360
406 44 283 296
407 203 139 298
408 259 27 334
409 325 158 387
410 201 111 290
411 175 274 355
412 299 209 388
413 210 299 389
414 28 259 339
415 211 138 338
416 113 216 281
417 196 275 404
418 24 258 333
419 75 76 425
420 224 137 305
421 198 68 406
422 63 4 375
423 102 248 328
424 123 242 360
425 55 56 250
426 229 156 266
427 97 202 318
428 379 235 394
429 120 237 249
430 187 325 387
431 147 160 323
432 327 179 386
433 215 272 350
434 206 150 307
435 178 71 345
436 73 14 353
437 63 186 253
438 117 180 322
439 258 23 347
440 60 206 307
441 293 178 305
442 250 191 419
443 215 77 275
444 187 116 325
445 109 226 256
446 102 233 248
447 163 203 321
448 154 219 384
449 14 74 288
450 202 166 318
451 173 255 348
452 67 8 426
453 136 220 267
454 253 155 330
455 141 211 329
456 237 120 254
457 107 229 300
458 225 125 277
459 3 253 330
460 140 215 275
461 156 239 266
462 142 287 360
463 137 199 324
464 208 112 303
465 380 232 400
466 271 187 346
467 160 347 399
468 61 62 401
469 186 349 359
470 150 206 376
471 58 2 274
472 260 152 292
473 167 260 292
474 24 23 258
475 208 132 362
476 220 136 294
477 191 317 419
478 84 244 329
479 205 304 422
480 213 150 377
481 230 103 417
482 226 109 270
483 112 208 408
484 208 128 332
485 243 170 366
486 114 310 357
487 284 165 297
488 283 164 296
489 28 27 259
490 227 139 276
491 229 124 300
492 168 257 409
493 310 149 357
494 46 222 372
495 50 223 371
496 130 233 268
497 234 243 402
498 139 227 298
499 106 271 346
500 83 84 329
501 204 62 330
502 132 303 436
503 322 180 367
504 82 211 338
505 248 115 264
506 218 309 432
507 143 264 438
508 236 133 273
509 112 269 303
510 269 170 303
511 240 134 289
512 161 322 367
513 125 207 378
514 339 159 397
515 42 221 295
516 171 235 379
517 138 245 338
518 221 43 296
519 182 230 417
520 130 237 254
521 372 222 413
522 222 47 297
523 245 168 374
524 371 223 412
525 144 271 361
526 68 9 406
527 278 110 340
528 3 63 253
529 311 102 328
530 131 213 377
531 220 99 414
532 103 285 417
533 186 63 375
534 8 198 354
535 265 145 386
536 223 51 306
537 290 111 343
538 108 238 257
539 237 105 249
540 293 137 324
541 216 113 439
542 16 79 320
543 107 300 301
544 145 265 431
545 12 190 345
546 246 79 374
547 15 75 262
548 278 340 424
549 201 290 434
550 232 176 400
551 180 117 390
552 183 66 286
553 38 227 423
554 285 214 417
555 192 285 410
556 236 91 391
557 77 78 275
558 313 153 403
559 160 249 323
560 225 150 376
561 41 42 295
562 43 44 296
563 47 48 297
564 79 80 374
565 252 105 349
566 290 343 393
567 285 140 429
568 44 45 283
569 48 49 284
570 125 225 376
571 268 102 385
572 263 174 413
573 244 84 366
574 51 52 306
575 107 224 305
576 235 146 394
577 228 119 416
578 191 250 313
579 270 109 337
580 255 173 412
581 144 361 411
582 116 312 379
583 234 87 373
584 88 89 280
585 244 141 329
586 103 225 410
587 224 107 301
588 117 241 390
589 221 126 365
590 126 221 382
591 40 41 321
592 155 253 359
593 285 103 410
594 287 142 288
595 91 92 391
596 84 85 366
597 245 81 338
598 319 165 348
599 113 247 439
600 133 236 341
601 236 162 341
602 214 285 429
603 242 123 310
604 92 93 291
605 127 319 369
606 308 126 370
607 319 201 369
608 126 315 370
609 21 20 304
610 251 121 384
611 193 308 370
612 192 272 285
613 315 200 370
614 114 242 310
615 31 30 299
616 198 312 354
617 132 234 342
618 234 157 342
619 174 372 413
620 150 230 377
621 235 113 331
622 173 371 412
623 142 217 353
624 96 97 318
625 219 104 251
626 253 186 359
627 230 131 377
628 81 82 338
629 117 380 400
630 72 13 421
631 268 155 359
632 33 32 309
633 121 264 316
634 71 178 392
635 241 172 390
636 41 295 321
637 200 278 420
638 134 240 352
639 240 166 352
640 289 134 420
641 237 130 349
642 87 88 373
643 312 198 379
644 53 54 317
645 272 140 285
646 381 72 421
647 35 34 314
648 112 292 407
649 157 234 373
650 79 246 320
651 260 53 317
652 282 108 403
653 266 114 357
654 315 164 358
655 148 299 388
656 299 148 389
657 62 3 330
658 59 60 307
659 151 316 336
660 249 160 399
661 241 117 400
662 166 240 430
663 280 89 383
664 300 148 301
665 250 153 313
666 116 379 394
667 264 115 316
668 219 251 384
669 312 144 354
670 240 95 430
671 229 107 427
672 177 280 383
673 179 327 351
674 105 252 418
675 87 234 402
676 131 238 355
677 162 236 391
678 5 65 415
679 241 5 415
680 275 78 404
681 105 237 349
682 301 148 388
683 143 248 264
684 152 260 317
685 178 293 392
686 232 105 418
687 147 323 380
688 273 133 434
689 157 280 393
690 1 36 428
691 280 177 393
692 124 266 357
693 247 199 439
694 254 120 336
695 284 49 371
696 295 163 321
697 283 45 372
698 304 151 422
699 173 284 371
700 316 115 336
701 174 283 372
702 25 24 333
703 185 342 343
704 27 26 334
705 274 175 398
706 342 157 343
707 120 249 399
708 327 118 351
709 95 96 430
710 181 289 420
711 29 28 339
712 170 244 366
713 129 246 409
714 181 291 396
715 252 176 418
716 279 106 364
717 291 93 396
718 282 175 355
719 405 128 412
720 243 132 436
721 4 363 375
722 395 127 413
723 64 5 356
724 23 22 347
725 170 243 436
726 309 149 432
727 311 179 351
728 65 6 335
729 272 118 350
730 243 86 402
731 58 274 398
732 99 19 414
733 155 385 435
734 255 111 348
735 172 241 415
736 222 395 413
737 5 241 356
738 363 252 375
739 246 168 409
740 281 159 331
741 223 405 412
742 37 17 423
743 183 286 411
744 176 232 418
745 115 254 336
746 277 125 378
747 168 246 374
748 122 209 397
749 104 265 438
750 106 279 361
751 19 100 414
752 179 311 328
753 130 268 359
754 16 320 404
755 177 273 434
756 265 143 438
757 288 142 353
758 135 346 387
759 186 252 349
760 209 122 388
761 124 210 389
762 169 311 351
763 263 110 358
764 17 38 423
765 109 256 368
766 280 157 373
767 89 90 383
768 49 50 371
769 45 46 372
770 248 143 328
771 279 172 335
772 176 252 363
773 271 106 361
774 163 308 368
775 4 64 363
776 86 87 402
777 70 11 392
778 11 71 392
779 155 268 385
780 356 176 363
781 169 277 378
782 57 58 398
783 93 94 396
784 320 196 404
785 271 144 312
786 350 184 425
787 385 207 435
788 36 37 437
789 36 276 428
790 54 55 419
791 167 292 408
792 14 288 353
793 317 54 419
794 78 16 404
795 100 101 433
796 215 350 425
797 172 279 364
798 257 129 409
799 318 166 430
800 163 295 365
801 267 220 433
802 143 265 386
803 101 267 433
804 205 120 399
805 330 155 435
806 162 291 424
807 291 181 424
808 323 232 380
809 265 104 431
810 296 164 382
811 104 287 431
812 239 156 421
813 159 281 397
814 120 205 422
815 90 273 383
816 242 142 360
817 308 163 365
818 361 183 411
819 297 165 395
820 291 162 391
821 340 162 424
822 225 277 410
823 273 177 383
824 92 291 391
825 342 185 362
826 113 281 331
827 132 342 362
828 107 305 344
829 337 193 352
830 88 280 373
831 227 276 437
832 64 356 363
833 204 330 435
834 281 122 397
835 164 315 382
836 364 180 390
837 332 167 408
838 306 167 405
839 126 308 365
840 295 221 365
841 276 188 428
842 165 319 395
843 148 300 389
844 411 286 426
845 340 189 341
846 346 187 387
847 162 340 341
848 277 192 410
849 251 104 438
850 289 181 396
851 94 289 396
852 177 290 393
853 208 332 408
854 278 181 420
855 181 278 424
856 153 282 403
857 123 218 432
858 315 126 382
859 300 124 389
860 276 36 437
861 221 296 382
862 319 127 395
863 156 381 421
864 222 297 395
865 335 172 415
866 166 337 352
867 303 170 436
868 292 152 407
869 175 302 398
870 167 332 405
871 344 178 345
872 292 112 408
873 290 177 434
874 286 67 426
875 332 128 405
876 190 344 345
877 302 57 398
878 287 197 431
879 252 186 375
880 223 306 405
881 149 310 432
882 279 183 361
883 322 147 380
884 172 364 390
885 423 227 437
886 343 157 393
887 171 379 406
888 37 423 437
889 305 178 344
890 176 356 400
891 146 325 394
892 414 100 433
893 152 326 407
894 326 195 407
895 356 241 400
896 328 143 386
897 379 198 406
898 220 414 433
899 179 328 386
900 65 335 415
901 310 123 432
902 96 318 430
903 151 336 422
904 325 116 394
905 107 344 427
906 293 70 392
907 336 120 422
908 117 322 380
909 344 190 427
910 354 144 426
911 144 411 426
912 66 18 7
913 10 293 324
$EndElements
