$MeshFormat
4.1 0 8
$EndMeshFormat
$Entities
19 19 1 0
1 2.2 0.2 0 0
2 0.41 0.41 0 0
3 0.2 0.41 0 0
4 0 0.4 0 0
5 0 0.2 0 0
6 0 8.326672684688674e-17 0 0
7 0.2 0 0 0
8 0.3999999999999999 0 0 0
9 2.2 0.41 0 0
10 0 0.41 0 0
11 2.2 0 0 0
12 0.25 0.2 0 0
13 0.2353553390593274 0.2353553390593274 0 0
14 0.2 0.25 0 0
15 0.1646446609406726 0.2353553390593274 0 0
16 0.15 0.2 0 0
17 0.1646446609406726 0.1646446609406726 0 0
18 0.2 0.15 0 0
19 0.2353553390593274 0.1646446609406726 0 0
1 2.2 0.2 0 2.2 0.41 0 0 2 1 -9
2 0.4100000000000001 0.41 0 2.2 0.41 0 0 2 9 -2
3 0.2 0.41 0 0.41 0.41 0 0 2 2 -3
4 0 0.41 0 0.2 0.41 0 0 2 3 -10
5 0 0.4 0 0 0.41 0 0 2 10 -4
6 0 0.2 0 0 0.4 0 0 2 4 -5
7 0 8.326672684688674e-17 0 0 0.2 0 0 2 5 -6
8 0 0 0 0.2 8.326672684688674e-17 0 0 2 6 -7
9 0.2 0 0 0.3999999999999999 0 0 0 2 7 -8
10 0.3999999999999999 0 0 2.2 0 0 0 2 8 -11
11 2.2 0 0 2.2 0.2 0 0 2 11 -1
12 0.2353553390593274 0.2 0 0.25 0.2353553390593274 0 0 2 12 -13
13 0.2 0.2353553390593274 0 0.2353553390593274 0.25 0 0 2 13 -14
14 0.1646446609406726 0.2353553390593274 0 0.2 0.25 0 0 2 14 -15
15 0.15 0.2 0 0.1646446609406726 0.2353553390593274 0 0 2 15 -16
16 0.15 0.1646446609406726 0 0.1646446609406726 0.2 0 0 2 16 -17
17 0.1646446609406726 0.15 0 0.2 0.1646446609406726 0 0 2 17 -18
18 0.2 0.15 0 0.2353553390593274 0.1646446609406726 0 0 2 18 -19
19 0.2353553390593274 0.1646446609406726 0 0.25 0.2 0 0 2 19 -12
22 0 0 0 2.2 0.41 0 0 19 1 2 3 4 5 6 7 8 9 10 11 -19 -18 -17 -16 -15 -14 -13 -12
$EndEntities
$Nodes
39 136 1 136
0 1 0 1
1
2.2 0.2 0
0 2 0 1
2
0.41 0.41 0
0 3 0 1
3
0.2 0.41 0
0 4 0 1
4
0 0.4 0
0 5 0 1
5
0 0.2 0
0 6 0 1
6
0 8.326672684688674e-17 0
0 7 0 1
7
0.2 0 0
0 8 0 1
8
0.3999999999999999 0 0
0 9 0 1
9
2.2 0.41 0
0 10 0 1
10
0 0.41 0
0 11 0 1
11
2.2 0 0
0 12 0 1
12
0.25 0.2 0
0 13 0 1
13
0.2353553390593274 0.2353553390593274 0
0 14 0 1
14
0.2 0.25 0
0 15 0 1
15
0.1646446609406726 0.2353553390593274 0
0 16 0 1
16
0.15 0.2 0
0 17 0 1
17
0.1646446609406726 0.1646446609406726 0
0 18 0 1
18
0.2 0.15 0
0 19 0 1
19
0.2353553390593274 0.1646446609406726 0
1 1 0 1
20
2.2 0.3049999999996367 0
1 2 0 14
21
22
23
24
25
26
27
28
29
30
31
32
33
34
2.080666666666823 0.41 0
1.961333333333733 0.41 0
1.842000000000729 0.41 0
1.722666666667725 0.41 0
1.603333333334808 0.41 0
1.484000000001804 0.41 0
1.3646666666688 0.41 0
1.245333333335502 0.41 0
1.126000000001726 0.41 0
1.006666666668156 0.41 0
0.8873333333344984 0.41 0
0.7680000000008589 0.41 0
0.648666666667268 0.41 0
0.5293333333336139 0.41 0
1 3 0 1
35
0.3050000000002928 0.41 0
1 4 0 1
36
0.1000000000002736 0.41 0
1 5 0 0
1 6 0 1
37
0 0.3000000000002656 0
1 7 0 1
38
0 0.1000000000002466 0
1 8 0 1
39
0.0999999999997362 4.163336342355319e-17 0
1 9 0 1
40
0.2999999999997505 0 0
1 10 0 14
41
42
43
44
45
46
47
48
49
50
51
52
53
54
0.5199999999997875 0 0
0.6399999999995506 0 0
0.7599999999992414 0 0
0.8799999999988873 0 0
0.9999999999985623 0 0
1.119999999998297 0 0
1.239999999997902 0 0
1.359999999997883 0 0
1.479999999998162 0 0
1.599999999998534 0 0
1.719999999998854 0 0
1.839999999999234 0 0
1.959999999999576 0 0
2.079999999999768 0 0
1 11 0 1
55
2.2 0.09999999999973709 0
1 12 0 0
1 13 0 0
1 14 0 0
1 15 0 0
1 16 0 0
1 17 0 0
1 18 0 0
1 19 0 0
2 22 0 81
56
57
58
59
60
61
62
63
64
65
66
67
68
69
70
71
72
73
74
75
76
77
78
79
80
81
82
83
84
85
86
87
88
89
90
91
92
93
94
95
96
97
98
99
100
101
102
103
104
105
106
107
108
109
110
111
112
113
114
115
116
117
118
119
120
121
122
123
124
125
126
127
128
129
130
131
132
133
134
135
136
0.4400377581252031 0.1912990976071801 0
0.3553868353249569 0.1356366653941681 0
0.3589709393434765 0.2614408556407982 0
2.007908205256578 0.211718074887256 0
1.775763250850579 0.2046938919958562 0
1.543267867960346 0.2054206664587598 0
1.305000000002151 0.2056525745263151 0
1.066333333334941 0.2058292682931336 0
0.8240315315746496 0.2070999020246765 0
0.1417798640160634 0.3398455765061943 0
0.6453446287019384 0.2167626164916393 0
0.2592103941406896 0.3424883105820542 0
0.0639453322635974 0.2575629088490139 0
0.1421319379950048 0.0641135764959635 0
0.2566987313467518 0.06348168094617559 0
0.06411357649595797 0.1421319379951029 0
0.3001502173390969 0.1603609520274276 0
0.3013052568230953 0.2398291893164872 0
1.424333333335302 0.281693505534804 0
1.185666666668613 0.2817592365435406 0
0.9470000000013271 0.2818233167742726 0
1.422507527582804 0.1269932783966079 0
1.661616518710547 0.2831325701970565 0
1.183337781560348 0.1271889750041422 0
1.660040951958797 0.1258392867386956 0
0.9441129104765007 0.1266182431792759 0
0.5566723564851829 0.114757668184616 0
1.885936633456767 0.2844261771037917 0
1.892962940217177 0.1275568785760401 0
0.4548817086854627 0.09320685082664885 0
0.4534302505320866 0.3100394312651323 0
2.095055163871203 0.1499999999998686 0
0.7308515025418701 0.1293234730642773 0
2.08661200892745 0.2991510355254272 0
0.7439128995828914 0.2852359607288431 0
0.1653906698028313 0.2835543143466535 0
0.2348715655677504 0.2841874065348455 0
0.3411242317843802 0.1980756409783705 0
0.07166346845277456 0.07166346845283908 0
0.5649030254115457 0.3041928196571608 0
0.07004916677058567 0.3319701188655994 0
0.1186596678414943 0.2320344249616073 0
0.1662601993028918 0.1185449155652761 0
0.2298579044641805 0.1186292914812448 0
0.118544915565344 0.16626019930292 0
1.059999999998429 0.09426695998838318 0
1.299999999997893 0.09413444372997837 0
1.779639026194371 0.09361972720610716 0
1.540593504845991 0.09280534264254006 0
1.779703485731938 0.3152307742394597 0
1.543666666668308 0.3164389894876529 0
1.305000000002151 0.3165372145059564 0
1.066333333334941 0.3166331000142326 0
2.026330133283534 0.09346826083911786 0
0.8314255084287092 0.09730825517446524 0
0.3453329841317148 0.3372768547760304 0
0.2002292624321728 0.3241380791788295 0
0.3244188971559532 0.06915547356183444 0
0.1997370248390873 0.07787374712399084 0
0.1125428195623946 0.1125428195624203 0
0.07960511474302821 0.1999999999999749 0
0.8433160567822912 0.3145557901532371 0
0.1145698043435796 0.2844122278381223 0
1.982355989223927 0.3119559788229213 0
0.285386320773743 0.2896925311681978 0
0.2834262743126827 0.1138681837565981 0
0.5374761448652667 0.2234264962578499 0
0.2893327935348436 0.199789611985015 0
0.655372332518953 0.3153737423198293 0
2.122054490356904 0.07153461157154249 0
0.6509633934932735 0.08950544724238745 0
2.124443660206674 0.2234507676608498 0
0.2665252823587429 0.1731151127768703 0
0.2667982341511757 0.2269944450974144 0
0.3854928196707907 0.07579667917075236 0
2.141819668898568 0.356037758881266 0
0.7264622009501926 0.2095188954539702 0
0.2614393945714723 0.25755609385533 0
0.2001230810657021 0.2847528671032298 0
0.1407087428223125 0.2598310727028962 0
0.2597104166878372 0.1427276061562093 0
$EndNodes
$Elements
39 291 1 291
0 1 15 1
1 1
0 2 15 1
2 2
0 3 15 1
3 3
0 4 15 1
4 4
0 5 15 1
5 5
0 6 15 1
6 6
0 7 15 1
7 7
0 8 15 1
8 8
0 9 15 1
9 9
0 10 15 1
10 10
0 11 15 1
11 11
0 12 15 1
12 12
0 13 15 1
13 13
0 14 15 1
14 14
0 15 15 1
15 15
0 16 15 1
16 16
0 17 15 1
17 17
0 18 15 1
18 18
0 19 15 1
19 19
1 1 1 2
20 1 20
21 20 9
1 2 1 15
22 9 21
23 21 22
24 22 23
25 23 24
26 24 25
27 25 26
28 26 27
29 27 28
30 28 29
31 29 30
32 30 31
33 31 32
34 32 33
35 33 34
36 34 2
1 3 1 2
37 2 35
38 35 3
1 4 1 2
39 3 36
40 36 10
1 5 1 1
41 10 4
1 6 1 2
42 4 37
43 37 5
1 7 1 2
44 5 38
45 38 6
1 8 1 2
46 6 39
47 39 7
1 9 1 2
48 7 40
49 40 8
1 10 1 15
50 8 41
51 41 42
52 42 43
53 43 44
54 44 45
55 45 46
56 46 47
57 47 48
58 48 49
59 49 50
60 50 51
61 51 52
62 52 53
63 53 54
64 54 11
1 11 1 2
65 11 55
66 55 1
1 12 1 1
67 12 13
1 13 1 1
68 13 14
1 14 1 1
69 14 15
1 15 1 1
70 15 16
1 16 1 1
71 16 17
1 17 1 1
72 17 18
1 18 1 1
73 18 19
1 19 1 1
74 19 12
2 22 2 217
75 36 4 96
76 60 78 80
77 59 83 84
78 16 97 100
79 98 17 100
80 18 98 99
81 78 61 80
82 57 56 93
83 61 74 77
84 74 62 77
85 83 60 84
86 62 75 79
87 75 63 79
88 63 76 81
89 76 64 81
90 56 58 93
91 4 37 96
92 58 86 111
93 56 57 85
94 44 45 81
95 58 56 86
96 46 47 79
97 48 49 77
98 26 27 74
99 28 29 75
100 30 31 76
101 24 25 78
102 22 23 83
103 86 2 111
104 50 51 80
105 52 53 84
106 82 42 126
107 41 42 82
108 46 79 101
109 48 77 102
110 3 36 65
111 55 1 87
112 79 63 101
113 44 81 110
114 35 3 67
115 90 32 124
116 77 62 102
117 84 53 109
118 32 33 124
119 22 83 119
120 50 80 104
121 3 65 112
122 43 88 126
123 26 74 106
124 74 27 107
125 80 61 104
126 28 75 107
127 75 29 108
128 74 61 106
129 30 76 108
130 75 62 107
131 62 74 107
132 76 63 108
133 63 75 108
134 24 78 105
135 60 80 103
136 86 56 122
137 78 25 106
138 78 60 105
139 34 2 86
140 61 78 106
141 80 51 103
142 82 56 85
143 61 77 104
144 77 49 104
145 89 21 119
146 62 79 102
147 79 47 102
148 14 13 92
149 67 3 112
150 63 81 101
151 15 14 91
152 81 45 101
153 81 64 110
154 42 43 126
155 37 5 68
156 39 7 69
157 7 40 70
158 5 38 71
159 95 86 122
160 66 82 126
161 8 41 85
162 85 57 130
163 41 82 85
164 33 34 95
165 88 66 126
166 59 87 127
167 21 22 119
168 89 59 127
169 64 76 117
170 76 31 117
171 59 84 109
172 100 97 116
173 99 98 114
174 98 100 115
175 16 15 97
176 18 17 98
177 19 18 99
178 17 16 100
179 34 86 95
180 65 36 96
181 83 23 105
182 88 43 110
183 84 60 103
184 7 70 114
185 5 71 116
186 69 7 114
187 68 5 116
188 60 83 105
189 52 84 103
190 83 59 119
191 33 95 124
192 53 54 109
193 109 54 125
194 32 90 117
195 20 89 127
196 56 82 122
197 64 88 110
198 31 32 117
199 2 35 111
200 38 6 94
201 6 39 94
202 40 8 113
203 57 72 121
204 43 44 110
205 66 88 132
206 82 66 122
207 87 109 125
208 1 20 127
209 87 59 109
210 54 11 125
211 23 24 105
212 87 1 127
213 59 89 119
214 45 46 101
215 39 69 94
216 71 38 94
217 47 48 102
218 49 50 104
219 51 52 103
220 25 26 106
221 27 28 107
222 29 30 108
223 37 68 96
224 35 67 111
225 89 20 131
226 88 64 132
227 55 87 125
228 73 58 120
229 90 64 117
230 11 55 125
231 70 40 113
232 113 8 130
233 9 21 131
234 8 85 130
235 113 57 121
236 21 89 131
237 58 111 120
238 66 90 124
239 72 57 93
240 58 73 93
241 64 90 132
242 93 73 123
243 72 93 123
244 65 96 118
245 90 66 132
246 94 69 115
247 71 94 115
248 96 68 118
249 111 67 120
250 92 13 133
251 66 95 122
252 14 92 134
253 15 91 135
254 91 14 134
255 95 66 124
256 70 113 121
257 20 9 131
258 12 19 128
259 13 12 129
260 97 15 135
261 19 99 136
262 91 65 118
263 65 91 112
264 92 67 112
265 12 123 129
266 123 12 128
267 97 68 116
268 98 69 114
269 69 98 115
270 70 99 114
271 71 100 116
272 100 71 115
273 112 91 134
274 68 97 118
275 92 112 134
276 57 113 130
277 67 92 120
278 118 97 135
279 91 118 135
280 73 120 133
281 99 70 121
282 120 92 133
283 121 72 136
284 99 121 136
285 72 128 136
286 129 73 133
287 13 129 133
288 128 19 136
289 123 73 129
290 72 123 128
291 10 4 36
$EndElements
